<svg xmlns="http://www.w3.org/2000/svg" viewBox="0 120 500 300" fill="none" stroke-linejoin="round" stroke-linecap="round"><defs><pattern id="dots" width="11" height="11" patternUnits="userSpaceOnUse" patternTransform="rotate(30)"><circle cx="5.5" cy="5.5" r="2" fill="#000" fill-opacity=".25"/></pattern></defs><ellipse cx="250" cy="330" rx="200" ry="34" fill="#4a4a4a" stroke="#000" stroke-width="6"/><path d="M70,318l7,10" stroke="#151515" stroke-width="3"/><path d="M84,318l7,10" stroke="#151515" stroke-width="3"/><path d="M98,318l7,10" stroke="#151515" stroke-width="3"/><path d="M112,318l7,10" stroke="#151515" stroke-width="3"/><path d="M126,318l7,10" stroke="#151515" stroke-width="3"/><path d="M140,318l7,10" stroke="#151515" stroke-width="3"/><path d="M154,318l7,10" stroke="#151515" stroke-width="3"/><path d="M168,318l7,10" stroke="#151515" stroke-width="3"/><path d="M182,318l7,10" stroke="#151515" stroke-width="3"/><path d="M196,318l7,10" stroke="#151515" stroke-width="3"/><path d="M210,318l7,10" stroke="#151515" stroke-width="3"/><path d="M224,318l7,10" stroke="#151515" stroke-width="3"/><path d="M238,318l7,10" stroke="#151515" stroke-width="3"/><path d="M252,318l7,10" stroke="#151515" stroke-width="3"/><path d="M266,318l7,10" stroke="#151515" stroke-width="3"/><path d="M280,318l7,10" stroke="#151515" stroke-width="3"/><path d="M294,318l7,10" stroke="#151515" stroke-width="3"/><path d="M308,318l7,10" stroke="#151515" stroke-width="3"/><path d="M322,318l7,10" stroke="#151515" stroke-width="3"/><path d="M336,318l7,10" stroke="#151515" stroke-width="3"/><path d="M350,318l7,10" stroke="#151515" stroke-width="3"/><path d="M364,318l7,10" stroke="#151515" stroke-width="3"/><path d="M378,318l7,10" stroke="#151515" stroke-width="3"/><path d="M392,318l7,10" stroke="#151515" stroke-width="3"/><path d="M406,318l7,10" stroke="#151515" stroke-width="3"/><path d="M420,318l7,10" stroke="#151515" stroke-width="3"/><path d="M100,320C100,210 170,170 250,170C330,170 400,210 400,320Z" fill="#cfcfcf" stroke="#000" stroke-width="6"/><path d="M110,318Q250,280 390,318Z" fill="url(#dots)"/><path d="M150,250Q170,205 225,192" stroke="#fff" stroke-width="11"/><path d="M100,320C100,210 170,170 250,170C330,170 400,210 400,320" stroke="#000" stroke-width="6"/></svg>
