<svg xmlns="http://www.w3.org/2000/svg" viewBox="0 100 500 380" fill="none" stroke-linejoin="round" stroke-linecap="round"><g transform="rotate(-30 170 280)"><rect x="142" y="200" width="56" height="190" rx="22" fill="#f2b562" stroke="#000" stroke-width="6"/><path d="M142,240q8,-30 28,-30t28,30" fill="#fff" stroke="#000" stroke-width="4"/><circle cx="162" cy="290" r="3" fill="#7a3b1e"/><circle cx="180" cy="330" r="3" fill="#7a3b1e"/><circle cx="166" cy="360" r="3" fill="#7a3b1e"/></g><g transform="rotate(-8 250 270)"><rect x="222" y="190" width="56" height="190" rx="22" fill="#f2b562" stroke="#000" stroke-width="6"/><path d="M222,230q8,-30 28,-30t28,30" fill="#fff" stroke="#000" stroke-width="4"/><circle cx="242" cy="280" r="3" fill="#7a3b1e"/><circle cx="260" cy="320" r="3" fill="#7a3b1e"/><circle cx="246" cy="350" r="3" fill="#7a3b1e"/></g><g transform="rotate(18 330 290)"><rect x="302" y="210" width="56" height="190" rx="22" fill="#f2b562" stroke="#000" stroke-width="6"/><path d="M302,250q8,-30 28,-30t28,30" fill="#fff" stroke="#000" stroke-width="4"/><circle cx="322" cy="300" r="3" fill="#7a3b1e"/><circle cx="340" cy="340" r="3" fill="#7a3b1e"/><circle cx="326" cy="370" r="3" fill="#7a3b1e"/></g><path d="M120,150l20,-30M250,130l0,-36M380,150l-20,-30" stroke="#fff" stroke-width="7"/><ellipse cx="250" cy="430" rx="170" ry="22" fill="#ff6b1a" stroke="#000" stroke-width="6"/></svg>
